HIERARCHY
ROOT Hips
{
	OFFSET 0.000000 8.830580 0.000000
	CHANNELS 6 Xposition Yposition Zposition Zrotation Yrotation Xrotation 
	JOINT Spine
	{
		OFFSET 0.000000 0.010000 0.000000
		CHANNELS 3 Zrotation Yrotation Xrotation
		JOINT Spine1
		{
			OFFSET 0.000000 2.459130 0.000000
			CHANNELS 3 Zrotation Yrotation Xrotation
			JOINT Neck
			{
				OFFSET 0.000000 2.484630 0.000000
				CHANNELS 3 Zrotation Yrotation Xrotation
				JOINT Head_virtual
				{
					OFFSET 0.000000 0.000000 0.000000
					CHANNELS 3 Zrotation Yrotation Xrotation
					JOINT Head
					{
						OFFSET 0.000000 0.927525 0.000000
						CHANNELS 3 Zrotation Yrotation Xrotation
						End Site
						{
							OFFSET 0.000000 0.000000 0.000000
						}
					}
				}
				JOINT LeftUpArm_virtual
				{
					OFFSET 0.000000 0.000000 0.000000
					CHANNELS 3 Zrotation Yrotation Xrotation
					JOINT LeftUpArm
					{
						OFFSET 1.248820 0.000000 0.000000
						CHANNELS 3 Zrotation Yrotation Xrotation
						JOINT LeftForeArm
						{
							OFFSET 2.597580 0.000000 0.000000
							CHANNELS 3 Zrotation Yrotation Xrotation
							JOINT LeftHand
							{
								OFFSET 2.455420 0.000000 0.000000
								CHANNELS 3 Zrotation Yrotation Xrotation
								End Site
								{
									OFFSET 0.000000 0.000000 0.000000
								}
							}
						}
					}
				}
				JOINT RightUpArm_virtual
				{
					OFFSET -0.000000 -0.000000 -0.000000
					CHANNELS 3 Zrotation Yrotation Xrotation
					JOINT RightUpArm
					{
						OFFSET -1.248820 -0.000000 -0.000000
						CHANNELS 3 Zrotation Yrotation Xrotation
						JOINT RightForeArm
						{
							OFFSET -2.597580 -0.000000 -0.000000
							CHANNELS 3 Zrotation Yrotation Xrotation
							JOINT RightHand
							{
								OFFSET -2.455420 -0.000000 -0.000000
								CHANNELS 3 Zrotation Yrotation Xrotation
								End Site
								{
									OFFSET 0.000000 0.000000 0.000000
								}
							}
						}
					}
				}
			}
		}
	}
	JOINT LeftUpLeg
	{
		OFFSET 1.271939 0.000000 0.000000
		CHANNELS 3 Zrotation Yrotation Xrotation
		JOINT LeftLowLeg
		{
			OFFSET 0.000000 -4.342910 0.000000
			CHANNELS 3 Zrotation Yrotation Xrotation
			JOINT LeftFoot
			{
				OFFSET 0.000000 -4.487670 0.000000
				CHANNELS 3 Zrotation Yrotation Xrotation
				JOINT LeftToeBase
				{
					OFFSET 0.000000 0.000000 1.515070
					CHANNELS 3 Zrotation Yrotation Xrotation
					End Site
					{
						OFFSET 0.000000 0.000000 0.000000
					}
				}
			}
		}
	}
	JOINT RightUpLeg
	{
		OFFSET -1.271939 0.000000 0.000000
		CHANNELS 3 Zrotation Yrotation Xrotation
		JOINT RightLowLeg
		{
			OFFSET 0.000000 -4.342910 0.000000
			CHANNELS 3 Zrotation Yrotation Xrotation
			JOINT RightFoot
			{
				OFFSET 0.000000 -4.487670 0.000000
				CHANNELS 3 Zrotation Yrotation Xrotation
				JOINT RightToeBase
				{
					OFFSET 0.000000 0.000000 1.515070
					CHANNELS 3 Zrotation Yrotation Xrotation
					End Site
					{
						OFFSET 0.000000 0.000000 0.000000
					}
				}
			}
		}
	}
}
MOTION
Frames: 10
Frame Time: 0.041667
-14.302092 9.046962 29.078238 -174.947318 -71.148510 175.649357 1.413172 -3.739515 -5.085245 0.114328 2.789482 14.986573 0.000000 0.000000 0.000000 16.633383 -7.815870 -11.264911 -4.315404 10.171132 -91.978580 -20.958401 2.111440 6.791992 -48.874001 -10.016200 -17.388800 0.000000 -88.181503 0.000000 15.048000 17.173000 -19.300400 23.750999 -3.547230 0.330994 49.434799 7.497380 -22.128201 0.000000 75.788597 0.000000 6.452700 -2.807340 -62.485401 4.939066 -7.191935 -19.436491 0.000000 0.000000 31.414000 -15.828208 7.144217 -2.306518 0.000000 0.000000 -26.233800 7.157940 9.095296 -6.635082 0.000000 0.000000 20.718901 23.170641 -7.869029 -6.789529 0.000000 0.000000 -19.268670 
-14.249645 9.048118 29.104406 -173.732099 -72.537160 174.915178 1.776042 -3.521065 -4.837484 0.191905 2.931154 14.497582 0.000000 0.000000 0.000000 11.626383 -5.797302 -9.568856 -4.982055 10.045175 -91.902872 -20.719801 2.264140 6.604004 -48.879902 -9.969730 -15.385300 0.000000 -88.724403 0.000000 15.305000 17.481199 -17.386600 23.639299 -3.778910 0.131012 49.473801 6.583200 -19.895599 0.000000 76.249702 0.000000 5.854450 -3.191400 -61.372700 4.590034 -5.293922 -20.449203 0.000000 0.000000 33.779400 -14.856067 7.835048 -2.676807 0.000000 0.000000 -26.329200 7.239680 7.973560 -7.225734 0.000000 0.000000 20.367001 23.228751 -8.077999 -6.525324 0.000000 0.000000 -19.231170 
-14.203455 9.047720 29.130779 -172.235466 -73.908158 173.803724 2.184058 -3.281433 -4.661730 0.243319 3.081570 14.053738 0.000000 0.000000 0.000000 7.245461 -3.863943 -7.918962 -5.848088 9.955373 -91.749494 -20.614500 2.467910 6.178986 -48.859901 -9.818570 -13.420300 0.000000 -89.369698 0.000000 15.882900 17.578899 -16.341101 23.529400 -4.153840 -0.261993 49.466801 5.590960 -17.291100 0.000000 76.853104 0.000000 4.899460 -3.389060 -60.528999 4.385518 -4.102412 -21.244061 0.000000 0.000000 36.303101 -14.452333 8.420799 -3.093380 0.000000 0.000000 -26.244000 7.364959 6.833925 -7.623935 0.000000 0.000000 19.915600 23.185164 -8.318407 -6.288421 0.000000 0.000000 -19.182710 
-14.163801 9.046010 29.156710 -170.560488 -75.158106 172.432232 2.587336 -2.971562 -4.469622 0.202876 3.278003 13.456930 0.000000 0.000000 0.000000 3.055704 -1.809125 -6.066537 -6.283759 9.839471 -91.663895 -20.511801 2.768230 5.790985 -48.808800 -9.655650 -11.485300 -180.000000 -89.902100 180.000000 16.907600 17.517099 -15.717500 23.512100 -4.552820 -0.539001 49.569401 4.669740 -15.088900 0.000000 77.508400 0.000000 4.519710 -3.412170 -59.316399 4.343861 -3.391169 -21.723768 0.000000 0.000000 38.789001 -14.507584 8.805721 -3.397391 0.000000 0.000000 -26.704100 7.498526 5.834384 -7.914458 0.000000 0.000000 19.504101 23.378090 -8.458090 -6.177546 0.000000 0.000000 -19.023950 
-14.129165 9.044268 29.181326 -168.619796 -76.353064 170.708398 2.919913 -2.671355 -4.324238 0.187643 3.488819 13.010134 0.000000 0.000000 0.000000 -0.179800 -0.164697 -4.558964 -6.867552 9.745191 -91.553804 -20.577200 3.030490 5.351990 -48.565701 -9.362410 -9.638530 180.000000 -88.907898 -180.000000 18.342800 17.374300 -14.421600 23.526400 -4.951660 -1.067993 49.688900 3.612800 -12.879000 0.000000 78.249199 0.000000 4.825100 -3.225210 -59.079300 4.396329 -2.755759 -21.896529 0.000000 0.000000 41.089699 -14.530534 9.193736 -3.871205 0.000000 0.000000 -26.581100 7.627834 5.052154 -8.120119 0.000000 0.000000 19.160500 23.697984 -8.623574 -6.113473 0.000000 0.000000 -19.148810 
-14.097902 9.043147 29.203088 -166.435175 -77.616645 168.716097 3.275654 -2.372233 -4.270356 -0.111875 3.628828 12.712815 0.000000 0.000000 0.000000 -2.681165 1.270068 -3.379167 -7.124244 9.724611 -91.511123 -20.567101 3.369150 4.898010 -48.224400 -9.148790 -7.869700 180.000000 -87.790100 -180.000000 19.683701 17.232100 -12.660100 23.713800 -5.263540 -1.345001 49.901001 2.761280 -11.210100 0.000000 78.995201 0.000000 5.096060 -2.851190 -58.583500 4.557684 -2.282593 -21.823605 0.000000 0.000000 43.026699 -14.272134 9.455338 -4.220340 0.000000 0.000000 -26.776600 7.732548 4.536388 -8.298950 0.000000 0.000000 18.879900 24.050488 -9.060489 -6.205628 0.000000 0.000000 -19.184200 
-14.069382 9.042180 29.225859 -163.838994 -78.910889 166.321348 3.419482 -2.221115 -4.252481 -0.207614 3.721085 12.529342 0.000000 0.000000 0.000000 -4.173849 2.156333 -2.690400 -7.399595 9.732485 -91.444646 -20.628700 3.810520 4.348999 -48.027500 -8.899690 -6.232400 -180.000000 -86.632500 180.000000 20.353300 16.921200 -11.134200 23.799101 -5.409220 -1.420990 50.196800 1.977950 -9.794050 0.000000 79.894203 0.000000 4.565040 -2.781260 -57.543400 4.771552 -1.794490 -21.598223 0.000000 0.000000 44.614899 -14.047884 9.505073 -4.566728 0.000000 0.000000 -26.787000 7.796065 4.080036 -8.518258 0.000000 0.000000 18.697100 24.416041 -9.538573 -6.400453 0.000000 0.000000 -19.111670 
-14.041771 9.041737 29.252134 -161.214746 -80.075521 163.814248 3.503699 -2.042649 -4.144698 -0.430659 3.812993 12.386051 0.000000 0.000000 0.000000 -4.809442 2.561605 -2.345608 -7.032115 9.704737 -91.353695 -20.625299 4.184210 3.951996 -47.903500 -8.704130 -4.860620 -180.000000 -85.560501 180.000000 20.739201 16.540701 -10.047100 23.780100 -5.422860 -1.678986 50.496700 0.996266 -8.072570 0.000000 80.689903 0.000000 3.658370 -2.825720 -56.590302 5.001519 -1.380981 -21.087718 0.000000 0.000000 45.749901 -13.857595 9.409274 -4.804084 0.000000 0.000000 -26.872400 7.757601 3.826068 -8.731101 0.000000 0.000000 18.658001 24.791036 -10.037440 -6.623523 0.000000 0.000000 -19.160290 
-14.013808 9.042040 29.283138 -158.724129 -81.152182 161.489474 3.486907 -1.781652 -3.977006 -0.711236 3.985264 12.127369 0.000000 0.000000 0.000000 -3.991528 1.984429 -2.107118 -6.561414 9.640652 -91.322596 -20.547800 4.390050 3.644989 -47.942101 -8.457490 -3.536370 -180.000000 -84.607101 180.000000 21.136499 16.125401 -9.361980 23.732300 -5.428760 -1.531006 50.865799 0.288314 -6.720280 0.000000 81.413498 0.000000 2.678930 -3.242700 -55.390900 5.211448 -1.213804 -20.402582 0.000000 0.000000 46.313400 -14.190186 8.836288 -4.865686 0.000000 0.000000 -27.017100 7.567449 3.791001 -9.144782 0.000000 0.000000 18.899799 25.235225 -10.506820 -6.916114 0.000000 0.000000 -19.377500 
-13.980168 9.043735 29.315213 -156.315166 -81.945596 159.360604 3.333908 -1.459918 -3.714437 -0.929603 4.245176 11.733246 0.000000 0.000000 0.000000 -1.719399 0.387654 -2.037266 -6.227172 9.552341 -91.339927 -20.466801 4.545430 3.276001 -47.920502 -8.089840 -1.859870 -180.000000 -83.723900 180.000000 22.399200 15.574800 -8.003540 23.655001 -5.422620 -1.201996 51.196999 -0.123282 -5.460190 0.000000 81.974297 0.000000 1.604610 -3.629130 -54.352600 5.531892 -1.282386 -19.598509 0.000000 0.000000 46.292198 -14.503361 7.849559 -4.384561 0.000000 0.000000 -27.162100 7.364554 4.675813 -9.851141 0.000000 0.000000 19.408300 25.850848 -11.585237 -7.412538 0.000000 0.000000 -19.414550 
